PathFileType	4	(X/Y/Z)	D:\TRACE\spotREDO_2-26-24\spot_justArm_Motion_3_1-platform.trc
DataRate	CameraRate	NumFrames	NumMarkers	Units	OrigDataRate	OrigDataStartFrame	OrigNumFrames
100.00	100.00	      62	5	mm	100.00	6126	      7000
Frame#	Time	Left_Front			Right_Front			Left_Aft			Right_Aft			Post			
		X1	Y1	Z1	X2	Y2	Z2	X3	Y3	Z3	X4	Y4	Z4	X5	Y5	Z5	

6126	61.250	-701.76447	5.52470	-573.23413	713.08624	13.16575	-488.55832	-772.69794	-5.14689	645.97485	796.45886	1.09574	650.09216	7.55388	639.13739	-969.70654	
6127	61.260	-701.62982	5.28866	-573.30011	713.24335	12.94471	-488.66602	-772.41156	-4.81568	645.95245	796.74780	1.55707	650.07318	7.67400	638.62531	-970.15741	
6128	61.270	-701.39233	5.04005	-573.39728	713.41254	12.72141	-488.92746	-772.31860	-4.52217	645.92249	797.01520	1.72751	650.05927	8.15032	638.20050	-970.53613	
6129	61.280	-701.07513	4.61963	-573.43799	713.50543	12.36198	-488.99127	-772.29822	-4.02829	645.82166	797.11682	2.03887	649.95667	8.72598	637.54999	-970.90503	
6130	61.290	-700.82654	4.28328	-573.49121	713.70435	12.04340	-489.00305	-772.09460	-3.53197	645.61719	797.40802	2.46971	649.78290	8.67920	637.01422	-971.49683	
6131	61.300	-700.63208	4.04674	-573.53070	713.97748	11.72611	-488.94684	-771.84424	-3.37457	645.59589	797.66119	2.79289	649.54669	8.95157	636.61584	-971.60645	
6132	61.310	-700.42554	3.77523	-573.67603	714.10706	11.43359	-488.95813	-771.68445	-3.22432	645.57538	797.65851	3.22100	649.83411	9.12164	636.28107	-971.96021	
6133	61.320	-700.28558	3.59992	-573.72662	714.36804	11.19850	-489.09769	-771.43115	-2.85154	645.64459	797.75751	3.13710	649.56891	9.22530	635.83331	-972.34064	
6134	61.330	-700.17932	3.34908	-573.81244	714.66077	10.91721	-489.15973	-771.29498	-2.66639	645.50800	797.82684	3.70868	649.83972	9.31145	635.33722	-972.66516	
6135	61.340	-699.93958	3.20875	-573.87457	714.81470	10.77629	-489.34607	-770.97247	-2.45703	645.42706	798.04877	4.03788	649.76404	9.46288	634.98950	-972.91211	
6136	61.350	-699.69543	2.96268	-573.95978	714.91211	10.73297	-489.36313	-770.88831	-2.36085	645.37018	798.35022	4.32585	649.59088	9.69460	634.56458	-972.96387	
6137	61.360	-699.53357	2.54757	-573.99139	715.20697	10.48136	-489.31122	-770.58728	-2.11485	645.36212	798.57910	4.49562	649.49628	9.76215	634.18024	-973.23529	
6138	61.370	-699.41693	2.25721	-573.99146	715.36298	10.34905	-489.39359	-770.48328	-1.95365	645.40308	798.68115	4.63617	649.38086	9.82087	633.83221	-973.68243	
6139	61.380	-699.31500	2.06127	-574.08179	715.56049	10.15090	-489.42896	-770.26929	-1.77676	645.39880	798.90015	4.94124	649.36212	10.24156	633.29376	-974.11646	
6140	61.390	-699.17761	1.84697	-574.13696	715.70367	9.91458	-489.54959	-770.15430	-1.48884	645.24994	799.03589	5.12251	649.34412	10.34667	633.07043	-974.49030	
6141	61.400	-699.07208	1.67292	-574.24249	715.77557	9.71092	-489.55728	-769.95807	-1.15346	645.16205	799.04218	5.29999	649.28839	10.49541	632.81964	-974.91132	
6142	61.410	-698.87421	1.51443	-574.29913	715.87701	9.68764	-489.74475	-769.94214	-0.93949	645.00018	799.25214	5.36401	649.03143	10.60744	632.53973	-975.14783	
6143	61.420	-698.73572	1.36810	-574.27203	715.86481	9.58352	-489.78256	-769.95117	-0.74586	645.00000	799.50787	5.76606	649.07886	10.68821	632.22089	-975.32861	
6144	61.430	-698.61603	1.26142	-574.30371	716.18372	9.44379	-489.70743	-769.66815	-0.49971	644.99731	799.56421	6.12990	649.20001	10.84275	631.84863	-975.53162	
6145	61.440	-698.55890	1.13762	-574.36627	716.47034	9.18464	-489.59796	-769.57318	-0.30672	644.93481	799.62787	6.31307	649.17493	11.06684	631.55280	-975.76093	
6146	61.450	-698.51086	1.00021	-574.47552	716.56989	9.13814	-489.62796	-769.45337	-0.22424	644.89850	799.71960	6.38792	649.14044	11.14348	631.39111	-975.89752	
6147	61.460	-698.41895	0.87871	-574.53027	716.57642	9.04587	-489.70441	-769.39874	-0.03982	644.85406	799.79309	6.49863	649.08929	11.22743	631.25409	-976.00671	
6148	61.470	-698.30768	0.74921	-574.53345	716.66882	8.97542	-489.77197	-769.35608	0.06027	644.81567	799.86926	6.59364	649.00049	11.29091	631.10742	-976.14911	
6149	61.480	-698.21582	0.72244	-574.59375	716.71075	8.91124	-489.77222	-769.33099	0.20872	644.75537	799.90430	6.66079	648.95551	11.35607	631.02643	-976.24115	
6150	61.490	-698.12659	0.60268	-574.65247	716.78827	8.85742	-489.80045	-769.22144	0.21402	644.71027	799.96014	6.70852	648.91980	11.50388	630.94232	-976.27081	
6151	61.500	-698.08038	0.45483	-574.65076	716.77069	8.87277	-489.92957	-769.11572	0.28257	644.71234	800.04626	6.80771	648.88824	11.46502	630.85480	-976.34259	
6152	61.510	-698.00964	0.45026	-574.64404	716.85645	8.85174	-489.93344	-768.98071	0.31723	644.68158	800.19781	6.85319	648.85986	11.58786	630.82404	-976.37939	
6153	61.520	-697.95898	0.35952	-574.62872	716.88062	8.82076	-489.91537	-768.90826	0.38721	644.71619	800.21265	6.85621	648.83319	11.65544	630.74738	-976.47479	
6154	61.530	-697.90356	0.19131	-574.59613	716.85889	8.76735	-489.94550	-768.84998	0.39791	644.72479	800.17780	6.87876	648.83813	11.67442	630.65131	-976.55267	
6155	61.540	-697.88934	0.21794	-574.59991	716.89075	8.76714	-489.95364	-768.85217	0.46543	644.70685	800.20166	6.87666	648.80731	11.66886	630.63843	-976.62610	
6156	61.550	-697.88672	0.22217	-574.64966	716.92914	8.76589	-489.94797	-768.80408	0.48763	644.72552	800.20209	6.87505	648.80927	11.66426	630.61823	-976.69086	
6157	61.560	-697.86188	0.29046	-574.64545	716.93665	8.76161	-489.97861	-768.81805	0.44867	644.69897	800.22766	6.90578	648.80627	11.66298	630.59448	-976.76257	
6158	61.570	-697.85626	0.29230	-574.63501	716.90057	8.78148	-489.99005	-768.78607	0.45979	644.69843	799.77142	6.52915	648.86536	11.60933	630.58167	-976.84039	
6159	61.580	-697.92816	0.26609	-574.62329	716.91840	8.78577	-489.97150	-768.82135	0.41125	644.75580	799.79608	6.53729	648.87817	11.56477	630.56769	-976.84436	
6160	61.590	-697.84753	0.35632	-574.58264	716.92505	8.81502	-489.91208	-768.82776	0.39135	644.71167	799.78888	6.54911	648.90491	11.59446	630.61145	-976.76801	
6161	61.600	-697.86304	0.38738	-574.58875	716.93463	8.79863	-489.99219	-768.81561	0.35751	644.73236	799.84290	6.50861	648.92200	11.66940	630.66284	-976.65131	
6162	61.610	-697.87311	0.46498	-574.61279	716.95502	8.83520	-489.89346	-768.80634	0.31245	644.72052	799.86487	6.54067	649.01660	11.77168	630.73804	-976.52264	
6163	61.620	-697.86346	0.54642	-574.59344	716.95599	8.88677	-489.88452	-768.89319	0.28662	644.72290	799.79193	6.46985	649.02979	11.71098	630.81396	-976.40082	
6164	61.630	-697.89807	0.66905	-574.58801	716.90955	8.93605	-489.86191	-768.92749	0.17938	644.70898	799.82190	6.46164	649.05353	11.61409	630.92444	-976.21033	
6165	61.640	-697.87170	0.73540	-574.53461	717.03101	8.93235	-489.76575	-768.90765	0.10013	644.76459	799.83990	6.46864	649.14417	11.57530	631.03961	-976.04138	
6166	61.650	-697.79791	0.84572	-574.49707	717.08093	8.98665	-489.71017	-768.90704	-0.03574	644.77234	799.91980	6.46405	649.19843	11.51909	631.15979	-975.93585	
6167	61.660	-697.81226	1.01246	-574.45245	717.07922	9.09632	-489.62717	-768.90070	-0.17134	644.85883	800.07117	6.28370	649.30658	11.53598	631.33942	-975.77148	
6168	61.670	-697.83557	1.18060	-574.37903	716.95984	9.20877	-489.64407	-768.91205	-0.36552	644.92822	800.04199	6.09291	649.43951	11.46911	631.55573	-975.66595	
6169	61.680	-698.04456	1.39305	-574.22357	716.77417	9.33195	-489.63492	-769.05432	-0.58980	644.98236	799.79297	5.88501	649.62323	11.26883	631.91504	-975.64392	
6170	61.690	-698.16833	1.52869	-574.19916	716.57849	9.56716	-489.60202	-769.23541	-0.81629	645.03748	799.71875	5.65858	649.55994	11.01787	632.28015	-975.43146	
6171	61.700	-698.39752	1.67606	-574.21033	716.37555	9.72152	-489.57144	-769.55353	-1.28435	644.97632	799.47784	5.36635	649.55103	10.81209	632.66351	-975.22583	
6172	61.710	-698.67059	1.84484	-574.18933	716.06616	9.92207	-489.58850	-769.66681	-1.44185	645.13202	799.25677	5.09552	649.51697	10.71430	632.98553	-974.94543	
6173	61.720	-698.78961	2.06431	-574.17676	715.96490	10.06338	-489.43008	-769.84607	-1.32789	645.08490	799.09863	4.95017	649.54077	10.62292	633.29474	-974.60327	
6174	61.730	-698.93396	2.16620	-574.08972	715.83643	10.21498	-489.46136	-769.89398	-1.78893	645.35779	799.10803	4.86506	649.61224	10.70127	633.48865	-973.95013	
6175	61.740	-699.00519	2.33247	-573.98700	715.66199	10.29419	-489.42847	-770.05640	-1.97228	645.37793	799.03467	4.73766	649.66888	10.59846	633.84283	-973.39801	
6176	61.750	-699.18652	2.56139	-573.98834	715.50897	10.38253	-489.38800	-770.24817	-2.18164	645.35193	798.76801	4.59386	649.71704	10.20464	634.20416	-972.99249	
6177	61.760	-699.33301	2.69329	-574.17413	715.25903	10.63801	-489.40009	-770.46893	-2.26149	645.34137	798.59198	4.48085	649.80212	9.87485	634.47437	-972.81885	
6178	61.770	-699.65405	3.05233	-573.95734	715.03516	10.74555	-489.33331	-770.79016	-2.44101	645.38391	798.41205	4.26546	649.87817	9.57996	634.76550	-972.81659	
6179	61.780	-699.89862	3.27857	-573.87463	714.83807	10.86713	-489.26929	-770.91394	-2.54417	645.43591	798.09723	4.01374	649.92090	9.37918	635.16278	-972.60651	
6180	61.790	-700.05371	3.47847	-573.79340	714.66864	10.96098	-489.14273	-771.20117	-2.77914	645.53333	797.87640	3.45339	649.92340	9.28376	635.36523	-972.48431	
6181	61.800	-700.13342	3.60430	-573.50964	714.38239	11.26174	-489.05359	-771.40167	-3.05793	645.57813	797.69244	3.37193	649.98700	9.14489	635.92511	-972.28137	
6182	61.810	-700.20996	3.76727	-573.42639	714.05981	11.45899	-488.97485	-771.60840	-3.09968	645.67053	797.68036	3.21832	650.02698	8.93823	636.35406	-972.22021	
6183	61.820	-700.47650	4.07011	-573.33997	713.94684	11.72270	-488.94724	-771.82874	-3.42193	645.61334	797.35864	2.82354	650.00909	8.67509	636.75842	-972.12122	
6184	61.830	-700.73810	4.36479	-573.25507	713.59167	12.09313	-488.98026	-772.17181	-3.56385	645.60974	797.19672	2.41955	650.08746	8.32270	637.17780	-971.88483	
6185	61.840	-701.03223	4.68302	-573.15948	713.35742	12.31380	-488.96341	-772.50146	-4.01172	645.76752	797.01196	2.10692	650.16364	7.99880	637.56366	-971.59326	
6186	61.850	-701.30389	5.00629	-573.07715	713.07977	12.57089	-488.90515	-772.60840	-4.13392	645.84283	796.75781	2.00079	650.28082	7.83220	638.16864	-970.94324	
6187	61.860	-701.48254	5.25280	-573.06982	712.85107	12.80560	-488.78790	-772.79474	-4.69110	645.91071	796.31476	1.67806	650.30042	7.61170	638.65546	-970.19067	
